<?xml version="1.0" standalone="no"?>
<!DOCTYPE svg PUBLIC "-//W3C//DTD SVG 20010904//EN"
 "http://www.w3.org/TR/2001/REC-SVG-20010904/DTD/svg10.dtd">
<svg version="1.0" xmlns="http://www.w3.org/2000/svg"
 width="218.000000pt" height="218.000000pt" viewBox="0 0 218.000000 218.000000"
 preserveAspectRatio="xMidYMid meet">
<metadata>
Created by potrace 1.11, written by Peter Selinger 2001-2013
</metadata>
<g transform="translate(0.000000,218.000000) scale(0.100000,-0.100000)"
fill="#000000" stroke="none">
<path d="M858 1699 c-14 -7 -18 -23 -18 -60 0 -45 -5 -56 -41 -97 -87 -99
-114 -187 -112 -372 0 -115 4 -148 27 -223 30 -101 54 -152 103 -220 34 -45
104 -97 134 -97 8 0 -5 9 -28 21 -89 44 -174 190 -207 353 -22 109 -29 203
-17 211 6 3 14 -1 17 -9 9 -23 105 -49 135 -37 94 36 107 191 19 236 -36 19
-61 19 -104 1 l-34 -14 12 29 c17 41 74 119 86 119 5 0 10 -6 10 -14 0 -19 43
-28 99 -20 85 12 91 17 91 74 0 49 1 50 30 50 36 0 91 -46 126 -107 63 -106
106 -307 106 -493 1 -179 -45 -319 -115 -352 -32 -15 -129 -42 -187 -51 -14
-2 -2 -5 26 -6 l52 -1 7 -137 c6 -114 5 -138 -7 -147 -20 -15 -30 -74 -22
-125 l7 -41 120 0 120 0 -7 46 c-3 26 -6 57 -6 70 0 12 -6 29 -14 37 -11 10
-16 58 -21 183 l-7 169 41 43 c50 52 85 118 100 191 14 65 -2 372 -24 468 -41
178 -124 265 -264 279 -55 6 -61 9 -61 30 0 14 -5 22 -12 19 -27 -8 -143 -14
-118 -5 l25 8 -25 1 c-14 0 -33 -4 -42 -10z m53 -73 c-12 -18 -21 -48 -21 -65
0 -26 -4 -32 -17 -29 -14 2 -19 15 -21 60 -3 55 -2 57 25 61 56 8 56 9 34 -27z
m97 -23 c-3 -57 -4 -58 -35 -61 -31 -3 -31 -3 -23 33 9 41 36 85 51 85 6 0 9
-23 7 -57z m-178 -298 c0 -8 -4 -15 -10 -15 -5 0 -10 7 -10 15 0 8 5 15 10 15
6 0 10 -7 10 -15z m254 -1010 c17 -25 16 -25 -4 -13 -11 7 -20 18 -20 25 0 19
6 16 24 -12z"/>
<path d="M1040 1394 c-58 -50 -75 -111 -44 -164 39 -65 149 -87 199 -40 55 51
57 150 5 202 -40 39 -114 40 -160 2z m90 -90 c0 -8 -4 -12 -10 -9 -5 3 -10 10
-10 16 0 5 5 9 10 9 6 0 10 -7 10 -16z"/>
<path d="M946 1018 c-8 -30 -7 -103 1 -151 5 -34 9 -38 32 -35 25 3 26 5 29
83 4 103 -2 125 -32 125 -16 0 -26 -7 -30 -22z"/>
</g>
</svg>
